<svg width="50" height="50" viewBox="0 0 50 50" fill="none" xmlns="http://www.w3.org/2000/svg">
<path d="M8.33322 47.2222C7.96487 47.2222 7.6116 47.0759 7.35113 46.8154C7.09067 46.555 6.94434 46.2017 6.94434 45.8333V4.16666C6.94434 3.7983 7.09067 3.44503 7.35113 3.18457C7.6116 2.9241 7.96487 2.77777 8.33322 2.77777C8.70158 2.77777 9.05485 2.9241 9.31532 3.18457C9.57578 3.44503 9.72211 3.7983 9.72211 4.16666V45.8333C9.72211 46.2017 9.57578 46.555 9.31532 46.8154C9.05485 47.0759 8.70158 47.2222 8.33322 47.2222Z" fill="white"/>
<path d="M42.4306 5.30555C42.2194 5.18365 41.9799 5.11948 41.7361 5.11948C41.4923 5.11948 41.2528 5.18365 41.0417 5.30555C38.3492 6.43737 35.4476 6.98645 32.5278 6.91667C30.0122 6.7326 27.5623 6.0279 25.3333 4.84722C23.1812 3.70656 20.8174 3.02105 18.3889 2.83333C16.3704 2.8105 14.3679 3.19306 12.5 3.95833V7.05555C14.3095 6.06548 16.3401 5.54946 18.4028 5.55555C20.4453 5.75819 22.4277 6.36235 24.2361 7.33333C26.8196 8.6824 29.6599 9.46821 32.5694 9.63889C35.1815 9.64799 37.78 9.26406 40.2778 8.5V26.3194C37.7905 27.2023 35.167 27.6396 32.5278 27.6111C30.0122 27.427 27.5623 26.7223 25.3333 25.5417C23.1812 24.401 20.8174 23.7155 18.3889 23.5278C16.3666 23.5225 14.364 23.924 12.5 24.7083V27.7778C14.3095 26.7877 16.3401 26.2717 18.4028 26.2778C20.4453 26.4804 22.4277 27.0846 24.2361 28.0556C26.8196 29.4046 29.6599 30.1904 32.5694 30.3611C35.9091 30.4305 39.2246 29.7816 42.2917 28.4583C42.5207 28.3429 42.7133 28.1663 42.8482 27.9481C42.983 27.73 43.0548 27.4787 43.0556 27.2222V6.48611C43.059 6.25266 43.0035 6.02211 42.8943 5.81576C42.7851 5.60942 42.6256 5.43394 42.4306 5.30555V5.30555Z" fill="white"/>
</svg>
